# xmcd CD database file
#
# Track frame offsets:
#	150
#	23147
#	40907
#	75407
#	100332
#	120412
#	143979
#	176422
#	206517
#	231772
#	300634
#
# Disc length: 4520 seconds
#
# Revision: 0
# Processed by: cddbd v1.5.1PL0 Copyright (c) Steve Scherf et al.
# Submitted via: CDex 1.51
#
DISCID=8411a60b
DTITLE=Bryan Lee - Live and Dangerous
DYEAR=2005
DGENRE=Blues
TTITLE0=The Bounce
TTITLE1=The Walk
TTITLE2=Don't Take My Blindness for Weakness
TTITLE3=Second Line Home
TTITLE4=Rocket 88
TTITLE5=Blues on My Mind
TTITLE6=Hug Me Til it Hurts
TTITLE7=Gave You What You Wanted
TTITLE8=No Need To Worry
TTITLE9=Six String Therapy
TTITLE10=Memphis Bound
EXTD=YEAR: 2005
EXTT0=
EXTT1=
EXTT2=
EXTT3=
EXTT4=
EXTT5=
EXTT6=
EXTT7=
EXTT8=
EXTT9=
EXTT10=
PLAYORDER=
